<?xml version="1.0" encoding="UTF-8" standalone="no"?>
<!-- Generator: Adobe Illustrator 16.0.0, SVG Export Plug-In . SVG Version: 6.00 Build 0)  -->

<svg
   xmlns:dc="http://purl.org/dc/elements/1.1/"
   xmlns:cc="http://creativecommons.org/ns#"
   xmlns:rdf="http://www.w3.org/1999/02/22-rdf-syntax-ns#"
   xmlns:svg="http://www.w3.org/2000/svg"
   xmlns="http://www.w3.org/2000/svg"
   xmlns:xlink="http://www.w3.org/1999/xlink"
   xmlns:sodipodi="http://sodipodi.sourceforge.net/DTD/sodipodi-0.dtd"
   xmlns:inkscape="http://www.inkscape.org/namespaces/inkscape"
   version="1.1"
   id="圖層_1"
   x="0px"
   y="0px"
   width="200"
   height="200"
   viewBox="0 0 200 200"
   enable-background="new 0 0 538.583 737.008"
   xml:space="preserve"
   inkscape:version="0.48.4 r9939"
   sodipodi:docname="勞動力發展署.svg"><metadata
   id="metadata166"><rdf:RDF><cc:Work
       rdf:about=""><dc:format>image/svg+xml</dc:format><dc:type
         rdf:resource="http://purl.org/dc/dcmitype/StillImage" /></cc:Work></rdf:RDF></metadata><defs
   id="defs164">
	
	
	
<radialGradient
   inkscape:collect="always"
   xlink:href="#SVGID_5_"
   id="radialGradient3255"
   gradientUnits="userSpaceOnUse"
   gradientTransform="matrix(14.9336,0,0,-14.9336,186.3281,11574.998)"
   cx="0"
   cy="737.00781"
   r="1.0002" /></defs><sodipodi:namedview
   pagecolor="#ffffff"
   bordercolor="#666666"
   borderopacity="1"
   objecttolerance="10"
   gridtolerance="10"
   guidetolerance="10"
   inkscape:pageopacity="0"
   inkscape:pageshadow="2"
   inkscape:window-width="1440"
   inkscape:window-height="747"
   id="namedview162"
   showgrid="false"
   fit-margin-top="0"
   fit-margin-left="0"
   fit-margin-right="0"
   fit-margin-bottom="0"
   inkscape:zoom="0.90570089"
   inkscape:cx="97.896486"
   inkscape:cy="90.330394"
   inkscape:window-x="-8"
   inkscape:window-y="-8"
   inkscape:window-maximized="1"
   inkscape:current-layer="圖層_1" />
<g
   id="g3227"
   transform="matrix(6.6959065,0,0,6.6968024,-1147.6449,-3709.265)"><g
     id="g115">
		<defs
   id="defs117">
			<path
   id="SVGID_3_"
   d="m 171.395,568.817 c 0,8.248 6.687,14.934 14.935,14.934 8.246,0 14.934,-6.686 14.934,-14.934 0,-8.246 -6.688,-14.932 -14.934,-14.932 -8.248,10e-4 -14.935,6.686 -14.935,14.932"
   inkscape:connector-curvature="0" />
		</defs>
		<clipPath
   id="SVGID_4_">
			<use
   xlink:href="#SVGID_3_"
   overflow="visible"
   id="use121"
   style="overflow:visible"
   x="0"
   y="0"
   width="538.58301"
   height="737.008" />
		</clipPath>
		
			<radialGradient
   id="SVGID_5_"
   cx="0"
   cy="737.00781"
   r="1.0002"
   gradientTransform="matrix(14.9336,0,0,-14.9336,186.3281,11574.998)"
   gradientUnits="userSpaceOnUse">
			<stop
   offset="0"
   style="stop-color:#FFFFFF"
   id="stop124" />
			<stop
   offset="0.3342"
   style="stop-color:#FEFEFF"
   id="stop126" />
			<stop
   offset="0.4927"
   style="stop-color:#F8FAFD"
   id="stop128" />
			<stop
   offset="0.6142"
   style="stop-color:#ECF2FA"
   id="stop130" />
			<stop
   offset="0.7168"
   style="stop-color:#DCE7F5"
   id="stop132" />
			<stop
   offset="0.8075"
   style="stop-color:#C6D8EF"
   id="stop134" />
			<stop
   offset="0.8898"
   style="stop-color:#AAC6E8"
   id="stop136" />
			<stop
   offset="0.9642"
   style="stop-color:#86B1DF"
   id="stop138" />
			<stop
   offset="1"
   style="stop-color:#6FA6DA"
   id="stop140" />
		</radialGradient>
		<rect
   x="171.395"
   y="553.88599"
   clip-path="url(#SVGID_4_)"
   width="29.868999"
   height="29.865"
   id="rect142"
   style="fill:url(#radialGradient3255)" />
	</g><g
     id="g144">
		<defs
   id="defs146">
			<rect
   id="SVGID_6_"
   x="171.395"
   y="553.88599"
   width="224.14"
   height="31.028" />
		</defs>
		<clipPath
   id="SVGID_7_">
			<use
   xlink:href="#SVGID_6_"
   overflow="visible"
   id="use150"
   style="overflow:visible"
   x="0"
   y="0"
   width="538.58301"
   height="737.008" />
		</clipPath>
		<path
   clip-path="url(#SVGID_7_)"
   d="m 180.558,566.215 c 0,0 7.392,-3.422 12.681,-8.633 0,0 -3.812,10.579 -11.123,18.979 h -7.003 c 0,0 8.013,-6.456 11.048,-10.655 0,-10e-4 -3.424,0.465 -5.603,0.309"
   id="path152"
   inkscape:connector-curvature="0"
   style="fill:#ea5514" />
		<path
   clip-path="url(#SVGID_7_)"
   d="m 183.317,575.065 c 3.013,1.265 4.381,0.618 5.327,-0.663 1.098,-1.481 -0.862,-4.15 -4.377,-5.961 -3.412,-1.761 -7.037,-2.059 -8.246,-0.715 0.045,-0.082 0.096,-0.161 0.155,-0.24 1.403,-1.898 6.195,-1.561 10.699,0.76 4.504,2.321 7.016,5.742 5.611,7.643 -1.406,1.898 -5.294,2.441 -9.622,-0.16"
   id="path154"
   inkscape:connector-curvature="0"
   style="fill:#0b318f" />
		<path
   clip-path="url(#SVGID_7_)"
   d="m 190.537,568.1 0.008,-0.026 c 0.036,-0.089 0.062,-0.158 0.083,-0.214 0.027,-0.078 0.049,-0.15 0.066,-0.224 l 0.078,-0.23 c 0.007,0 0.01,-0.005 0.011,-0.017 0.002,-0.011 0.002,-0.018 0.002,-0.021 0,-0.063 0.04,-0.223 0.123,-0.472 0.095,-0.282 0.175,-0.43 0.241,-0.44 l -0.008,-0.009 c 0.008,-0.013 0.044,-0.025 0.104,-0.046 0.06,-0.022 0.093,-0.029 0.097,-0.027 l 0.004,0.039 c 0,0.077 -0.019,0.183 -0.054,0.313 -0.046,0.161 -0.071,0.266 -0.078,0.312 -0.012,0.004 -0.016,0.018 -0.016,0.038 0,0.002 -0.005,0.016 -0.017,0.035 -0.01,0.023 -0.013,0.039 -0.003,0.046 -0.011,0.016 -0.022,0.029 -0.031,0.043 l -0.004,0.036 c -0.007,0 -0.013,0 -0.016,0.007 0.005,0.002 0.009,0.002 0.012,0.005 l -0.039,0.133 h 0.011 c 0.029,0 0.054,-0.019 0.074,-0.056 0.021,-0.039 0.042,-0.075 0.063,-0.111 0.046,-0.057 0.109,-0.131 0.187,-0.224 0.04,-0.046 0.077,-0.091 0.118,-0.137 0.07,-0.124 0.135,-0.208 0.195,-0.249 0.059,-0.041 0.125,-0.061 0.199,-0.061 l 0.031,0.007 0.003,0.022 c 0,0.031 -0.009,0.063 -0.028,0.096 -0.028,0.04 -0.047,0.066 -0.057,0.088 l -0.01,0.004 c -0.005,0.018 -0.008,0.034 -0.015,0.045 -0.006,0.014 -0.015,0.025 -0.027,0.037 -0.001,0.002 -0.001,0.004 0,0.009 0.002,0.002 0.003,0.002 0.006,0.002 -0.025,0.068 -0.043,0.12 -0.055,0.156 -0.024,0.071 -0.036,0.123 -0.036,0.154 0,0.018 -0.006,0.041 -0.016,0.067 -0.01,0.027 -0.016,0.051 -0.016,0.064 0,0.006 -0.008,0.023 -0.025,0.052 -0.009,0.015 -0.013,0.024 -0.013,0.033 l 0.006,0.016 0.02,-0.004 c 0.056,-0.077 0.135,-0.179 0.238,-0.308 0.079,-0.101 0.161,-0.201 0.245,-0.303 h 0.008 l 0.23,-0.281 c 0.016,-0.019 0.031,-0.038 0.049,-0.06 0.025,-0.028 0.041,-0.04 0.047,-0.035 0.017,-0.023 0.039,-0.044 0.069,-0.063 0.038,-0.023 0.066,-0.032 0.085,-0.027 l 0.009,-0.014 0.033,-0.007 0.015,0.034 c 0.004,0.002 0.007,0.007 0.011,0.009 0.021,0.005 0.032,0.005 0.036,0.005 0.008,0.013 0.015,0.02 0.02,0.016 l -0.026,0.033 c 0.002,0.005 0,0.01 -0.005,0.021 -0.004,0.009 -0.01,0.016 -0.015,0.021 l -0.026,0.021 c -0.005,0.005 -0.009,0.005 -0.013,0.007 v 0.006 c -0.027,0.025 -0.044,0.043 -0.056,0.055 -0.013,0.014 -0.018,0.022 -0.018,0.029 l -0.075,0.072 v 0.01 c -0.021,0.034 -0.053,0.054 -0.096,0.063 l 0.01,0.007 h 0.03 l -0.012,0.007 c -0.007,0 -0.013,0.002 -0.016,0.006 -0.016,0.014 -0.03,0.03 -0.046,0.043 l 0.012,0.005 -0.02,0.032 c -0.008,0 -0.026,0.015 -0.054,0.045 -0.026,0.029 -0.041,0.052 -0.041,0.072 h -0.017 c -0.018,0.007 -0.03,0.009 -0.034,0.009 0.002,0.007 0.007,0.014 0.012,0.018 l -0.012,0.013 c -0.025,0.004 -0.036,0.013 -0.036,0.024 h 0.009 l 0.003,-0.007 c 0.007,0.002 0.012,0.004 0.012,0.007 0.003,0.002 0.004,0.004 0.006,0.006 l -0.034,0.013 c -0.013,0.02 -0.028,0.038 -0.04,0.056 l -0.032,0.011 0.008,0.018 c 0,0.006 -0.007,0.015 -0.018,0.023 -0.013,0.013 -0.018,0.021 -0.018,0.025 0,0.005 -0.008,0.007 -0.024,0.009 l -0.017,0.021 0.004,0.006 -0.036,0.037 -0.014,0.004 c -0.012,0.024 -0.028,0.041 -0.048,0.045 -0.007,0.014 -0.014,0.03 -0.022,0.044 -0.007,0.015 -0.018,0.029 -0.029,0.045 -0.003,0.002 -0.007,0.007 -0.008,0.011 l -0.021,0.021 0.003,0.009 -0.036,0.021 -0.032,0.062 c -0.007,-0.002 -0.012,-0.002 -0.016,0.009 -0.006,0.009 -0.009,0.019 -0.012,0.032 h -0.012 c -0.002,0.002 -0.007,0.009 -0.019,0.021 -0.008,0.015 -0.013,0.023 -0.016,0.023 l -0.01,0.025 c -0.021,0.021 -0.04,0.047 -0.06,0.078 l 0.008,0.015 -0.028,0.015 -0.022,0.037 -0.012,0.006 -0.001,0.012 h -0.027 l 0.005,0.008 0.022,0.009 c 0,0 -0.006,0.004 -0.015,0.009 -0.008,0.004 -0.012,0.019 -0.012,0.038 l -0.017,0.016 -0.022,0.053 -0.018,0.007 v 0.034 c -0.009,0.004 -0.016,0.009 -0.02,0.013 -0.006,0.005 -0.007,0.009 -0.002,0.014 -0.009,0.009 -0.019,0.023 -0.032,0.041 -0.014,0.016 -0.024,0.024 -0.031,0.021 -0.028,0.031 -0.054,0.054 -0.082,0.069 -0.026,0.017 -0.057,0.025 -0.091,0.025 l -0.038,-0.007 -0.004,-0.057 0.006,-0.145 v -0.023 c 0.006,-0.018 0.011,-0.035 0.018,-0.052 0.007,-0.018 0.014,-0.034 0.021,-0.047 l -0.013,-0.021 c 0.006,-0.019 0.013,-0.038 0.016,-0.06 0.006,-0.021 0.006,-0.036 0.01,-0.049 l 0.012,-0.003 c 0.005,-0.027 0.011,-0.054 0.015,-0.081 0.006,-0.027 0.013,-0.052 0.022,-0.077 10e-4,-0.002 0.002,-0.007 0.002,-0.009 -0.004,-0.019 -0.006,-0.027 -0.002,-0.03 l 0.016,-0.024 c -0.006,-0.007 -0.006,-0.016 0.001,-0.027 0.005,-0.011 0.009,-0.021 0.009,-0.024 0,-0.021 0.005,-0.052 0.019,-0.093 0.014,-0.041 0.019,-0.063 0.019,-0.065 -0.027,0.028 -0.076,0.086 -0.142,0.174 -0.132,0.172 -0.206,0.258 -0.219,0.261 10e-4,0.004 -0.003,0.013 -0.015,0.027 -0.011,0.016 -0.019,0.02 -0.021,0.02 -0.006,0.007 -0.026,0.032 -0.062,0.075 -0.029,0.031 -0.044,0.061 -0.047,0.086 l -0.041,0.027 c -0.006,0.005 -0.004,0.009 0.006,0.016 0.009,0.004 0.013,0.009 0.012,0.014 -0.006,0.012 -0.012,0.021 -0.021,0.029 -0.006,0.011 -0.015,0.021 -0.026,0.032 l 0.013,0.009 c 0,0.004 -0.008,0.006 -0.025,0.009 l -0.006,0.04 -0.027,0.021 c -0.009,-0.003 -0.015,0.002 -0.016,0.009 -0.001,0.007 -0.001,0.015 -0.001,0.025 l -0.02,0.016 c -0.004,0.002 -0.007,0 -0.008,-0.01 -0.003,-0.006 -0.005,-0.012 -0.006,-0.012 l -0.025,0.058 -0.019,-0.002 c -0.003,0 -0.008,0 -0.015,0.002 -0.007,0.002 -0.012,0.002 -0.016,0.002 l -0.015,0.029 c -0.008,0.007 -0.018,0.009 -0.028,0.007 -0.009,0 -0.014,-0.002 -0.017,-0.002 l -0.02,0.02 -0.02,-0.004 c -0.014,0.022 -0.034,0.034 -0.059,0.038 -0.013,-0.004 -0.028,-0.007 -0.05,-0.002 0.001,-0.019 0.007,-0.039 0.016,-0.062 0.009,-0.024 0.013,-0.04 0.018,-0.051"
   id="path156"
   inkscape:connector-curvature="0"
   style="fill:#e60012" />
		<path
   clip-path="url(#SVGID_7_)"
   d="m 192.367,567.731 0.022,-0.015 V 567.7 c 0.015,-0.027 0.027,-0.045 0.034,-0.056 0.023,-0.043 0.036,-0.064 0.038,-0.066 0.015,-0.027 0.031,-0.054 0.046,-0.086 h 0.013 l 0.011,-0.043 0.017,-0.004 0.022,-0.052 c 0.007,-0.003 0.014,-0.015 0.023,-0.035 0.026,-0.065 0.071,-0.145 0.132,-0.237 0.166,-0.253 0.252,-0.385 0.258,-0.396 l 0.008,-0.01 -0.005,-0.007 -0.028,0.005 -0.042,-0.005 -0.034,-0.028 c 0.007,-0.025 0.024,-0.055 0.051,-0.094 0.026,-0.039 0.05,-0.063 0.068,-0.077 0.003,-0.009 0.005,-0.016 0.01,-0.018 0.001,-0.002 0.004,-0.002 0.004,-0.002 0.031,-0.039 0.093,-0.068 0.191,-0.089 0.098,-0.019 0.194,-0.029 0.291,-0.029 0.014,0 0.027,0 0.04,0.002 0.012,0 0.029,0 0.052,0.003 0.02,0.002 0.045,0.004 0.074,0.006 0.027,0.004 0.047,0.008 0.062,0.017 l 0.012,0.014 c 0.002,0.002 0.005,0.002 0.011,0 v -0.005 c 0.021,0.005 0.04,0.012 0.062,0.021 0.011,0.004 0.03,0.015 0.056,0.033 v 0.014 h 0.013 c 0.008,0 0.014,0.005 0.02,0.014 0.008,0.011 0.015,0.013 0.021,0.004 l 0.017,0.027 c 0.003,0 0.004,0 0.006,0.002 10e-4,0.003 0.005,0.005 0.006,0.007 0,0.009 0.007,0.021 0.019,0.034 0.014,0.014 0.021,0.022 0.022,0.03 l -0.023,0.013 0.018,0.021 c 0.004,0.002 0.007,0.002 0.01,0.004 -0.003,0.017 -0.01,0.025 -0.02,0.03 l 0.041,0.002 v 0.011 l -0.011,-0.002 c -0.003,0 -0.005,0.008 -0.006,0.023 l 0.006,0.002 0.01,-0.005 c 0,0.003 -0.006,0.009 -0.022,0.021 0,0.004 0.001,0.01 0.002,0.012 l -0.02,0.024 h 0.044 c -0.004,0.002 -0.008,0.009 -0.008,0.021 0,0.014 -0.002,0.018 -0.006,0.018 h -0.027 v 0.012 l 0.009,0.008 c 0.012,-0.008 0.022,-0.013 0.034,-0.017 -0.006,0.027 -0.021,0.04 -0.043,0.043 0.006,0.009 0.005,0.017 -0.003,0.025 -0.009,0.006 -0.013,0.013 -0.013,0.015 h 0.013 l 0.052,-0.026 -0.018,0.012 0.002,0.006 -0.029,0.023 -0.015,-0.002 -0.018,0.043 -0.029,0.023 v 0.02 l 0.027,-0.006 0.006,0.043 -0.024,-0.002 c 0.001,0.002 0,0.008 -0.005,0.014 -0.006,0.005 -0.011,0.005 -0.017,0.003 l 0.024,0.02 v 0.019 c 0,0.022 -0.011,0.034 -0.036,0.034 l 0.004,0.022 c -0.029,0.011 -0.051,0.013 -0.065,0.004 -0.005,0.005 -0.005,0.011 -0.003,0.017 0.004,0.005 0.006,0.009 0.007,0.011 l -0.003,0.022 -0.031,0.012 -0.016,0.005 0.027,0.002 0.019,0.005 c 0.004,-0.005 0.01,-0.012 0.017,-0.02 l 0.012,0.015 -0.028,0.03 -0.055,0.004 c -0.008,0.012 -0.011,0.022 -0.011,0.033 h 0.009 l 0.018,-0.011 v 0.014 c -0.016,0.003 -0.027,0.005 -0.038,0.003 l -0.032,0.028 v 0.017 l 0.032,0.004 -0.055,0.018 -0.018,0.03 c 0.004,0.004 0,0.009 -0.007,0.013 l -0.039,0.007 v 0.017 l 0.05,0.009 0.022,-0.018 0.008,-0.015 -0.028,0.053 c -0.007,-0.003 -0.015,-0.003 -0.022,-0.007 -0.01,0.017 -0.021,0.029 -0.031,0.034 -0.011,0.007 -0.03,0.017 -0.056,0.021 0.003,0.005 0.004,0.007 0.007,0.009 0.002,0.002 0.008,0.002 0.017,0.005 l -0.034,0.013 -0.018,0.03 -0.024,0.006 c -0.013,0.019 -0.019,0.03 -0.018,0.032 l -0.026,0.002 c 0.008,0.012 0.006,0.019 -0.002,0.019 -0.009,0.002 -0.018,0.002 -0.031,0.002 l -0.041,0.007 v 0.012 c 0.002,0.002 0.005,0 0.012,-0.002 0.004,0.002 0.008,0.002 0.011,0.002 -0.011,0.004 -0.016,0.014 -0.016,0.029 l -0.026,0.007 c -0.003,0.002 -0.006,0.007 -0.006,0.009 -0.005,0 -0.011,0.002 -0.02,0.002 l -0.005,0.016 c -0.007,0.008 -0.013,0.01 -0.02,0.013 -0.004,0.002 -0.01,0.002 -0.013,0.002 l -0.005,-0.009 -0.015,0.035 h -0.045 c -0.001,0.017 -0.015,0.027 -0.04,0.038 0.005,0.007 0.012,0.013 0.019,0.019 -0.009,-0.002 -0.019,-0.004 -0.028,-0.006 l -0.029,0.015 v 0.012 h 0.016 c 0.003,0 0.004,0.002 0.004,0.007 l -0.022,0.008 c -0.01,0.008 -0.016,0.015 -0.019,0.018 -0.002,0.002 -0.013,0.004 -0.031,0.004 -0.004,0.007 -0.007,0.014 -0.007,0.019 -0.015,0.003 -0.029,0.007 -0.042,0.014 -0.013,0.007 -0.021,0.016 -0.024,0.027 l -0.012,-0.006 c -0.018,0 -0.029,0.01 -0.038,0.03 l -0.025,-0.002 c -0.017,0.015 -0.056,0.04 -0.121,0.074 -0.064,0.036 -0.109,0.055 -0.133,0.055 -0.02,0.025 -0.059,0.049 -0.118,0.072 -0.046,0.02 -0.091,0.034 -0.138,0.043 -0.006,-0.005 -0.015,-0.007 -0.031,-0.007 -0.039,0 -0.065,0 -0.079,-0.002 -0.013,-0.005 -0.037,-0.012 -0.074,-0.025 -0.015,-0.018 -0.028,-0.034 -0.037,-0.054 -0.008,-0.019 -0.016,-0.036 -0.019,-0.056 0.002,-0.026 0.026,-0.076 0.072,-0.155 0.023,-0.036 0.034,-0.066 0.034,-0.081 0,-0.003 0.005,-0.007 0.016,-0.017 0.009,-0.014 0.013,-0.021 0.009,-0.032 m 0.352,0.088 v 0.02 l 0.018,0.008 0.052,-0.008 0.024,-0.02 h 0.017 c 0.008,-0.005 0.029,-0.013 0.065,-0.03 0.038,-0.013 0.062,-0.026 0.069,-0.038 h 0.022 c 0.003,0 0.005,-0.007 0.005,-0.02 0.024,-0.007 0.049,-0.015 0.07,-0.025 l 0.017,-0.016 0.005,-0.017 c 0.006,0.003 0.018,-0.002 0.04,-0.011 l 0.007,0.002 c 0.012,-0.02 0.029,-0.038 0.051,-0.054 0.016,-0.012 0.038,-0.025 0.068,-0.039 v -0.018 c 0.031,-0.019 0.063,-0.046 0.096,-0.074 0.024,-0.023 0.052,-0.056 0.085,-0.093 0.023,-0.03 0.046,-0.058 0.067,-0.089 0.021,-0.029 0.042,-0.065 0.067,-0.106 h 0.013 c -0.002,-0.017 0.004,-0.038 0.016,-0.07 0.011,-0.032 0.023,-0.052 0.036,-0.065 l -0.002,-0.012 0.012,-0.009 c -0.003,-0.011 -0.003,-0.029 0,-0.057 0.006,-0.025 0.011,-0.055 0.016,-0.088 0,-0.07 -0.026,-0.127 -0.076,-0.167 -0.051,-0.043 -0.113,-0.064 -0.186,-0.064 l -0.06,0.007 c 0.008,0.007 0.012,0.015 0.012,0.021 -0.012,0 -0.018,0.01 -0.025,0.027 -0.006,0.021 -0.008,0.036 -0.006,0.045 -0.018,0.015 -0.023,0.032 -0.018,0.053 l -0.019,0.007 -0.005,0.013 c -0.002,0 -0.005,0 -0.009,0.003 -0.004,0.002 -0.004,0.006 -0.001,0.012 l -0.02,0.035 0.001,0.017 -0.025,0.009 -0.003,0.023 -0.025,0.006 -0.006,0.021 0.013,0.021 -0.005,0.007 -0.04,0.005 -10e-4,0.008 0.007,0.018 0.026,-0.006 c -0.008,0.006 -0.018,0.014 -0.028,0.027 -0.01,0.014 -0.016,0.025 -0.018,0.034 l -0.015,0.027 h -0.011 l -0.007,0.014 h -0.011 l -0.005,0.02 0.01,0.004 0.024,-0.009 c -0.015,0.02 -0.028,0.023 -0.042,0.023 v 0.028 h -0.01 c -0.002,-0.002 -0.002,-0.004 0,-0.008 0.002,-0.005 -0.002,-0.007 -0.008,-0.007 l -0.006,0.011 0.014,0.015 0.005,0.011 -0.027,0.041 -0.006,0.007 -0.028,0.006 -0.017,0.041 0.016,0.038 h -0.046 l -0.004,0.007 0.022,0.012 h 0.012 c -0.007,0.007 -0.015,0.014 -0.029,0.019 -0.011,0.004 -0.024,0.006 -0.038,0.009 l -0.007,0.019 0.004,0.014 0.013,-0.012 h 0.021 v 0.014 c -0.003,0.004 -0.007,0.009 -0.01,0.013 l -0.027,0.003 v 0.01 l -0.022,0.006 c 0.003,0.007 0.005,0.012 0.008,0.012 0.002,0.004 0.004,0.004 0.005,0.007 l -0.026,0.014 -0.002,-0.012 c -0.022,0.019 -0.036,0.04 -0.042,0.068 l -0.021,0.004 v 0.023 c 0.024,-0.013 0.041,-0.019 0.054,-0.019 l 0.005,0.004 -0.023,0.012 c -0.011,0.024 -0.024,0.039 -0.045,0.043 l 0.006,0.012 -0.028,0.018 -0.005,0.021 h 0.018 l 0.009,-0.014 0.006,0.01 c -0.006,0.007 -0.009,0.013 -0.007,0.02 l -0.023,-0.007 c -0.023,0.012 -0.037,0.023 -0.041,0.034 l 0.002,0.016 0.007,-0.007 0.005,-0.004 0.027,-0.007 0.01,-0.007 -0.023,0.035 -0.02,0.004 0.009,0.002 v 0.018 l -0.015,0.029 -0.022,-0.006 -0.019,0.006 v 0.035 l -0.009,0.004 -0.005,0.016 c 0.004,0 0.008,-0.002 0.012,-0.002 0.004,-0.006 0.008,-0.009 0.009,-0.011"
   id="path158"
   inkscape:connector-curvature="0"
   style="fill:#e60012" />
		<path
   clip-path="url(#SVGID_7_)"
   d="m 193.804,567.876 c 0.007,-0.014 0.019,-0.034 0.035,-0.055 0.016,-0.021 0.027,-0.036 0.032,-0.047 0.016,-0.021 0.028,-0.034 0.034,-0.043 0.015,-0.021 0.024,-0.036 0.032,-0.051 0.005,-0.007 0.01,-0.011 0.016,-0.016 l 0.126,-0.172 c 0.006,-0.007 0.014,-0.013 0.023,-0.018 0.014,-0.025 0.03,-0.046 0.045,-0.068 0.026,-0.034 0.042,-0.05 0.054,-0.052 0.017,-0.029 0.039,-0.062 0.066,-0.096 0.028,-0.033 0.055,-0.065 0.083,-0.099 l 0.049,-0.061 0.018,-0.006 0.023,-0.043 c 0.007,-0.002 0.015,-0.007 0.024,-0.011 0.017,-0.037 0.038,-0.071 0.061,-0.095 l 0.003,-0.012 c 0.025,-0.019 0.047,-0.04 0.069,-0.068 0.021,-0.022 0.043,-0.047 0.066,-0.074 0.071,-0.07 0.13,-0.138 0.18,-0.2 0.017,-0.018 0.033,-0.032 0.047,-0.051 0.026,-0.03 0.048,-0.061 0.07,-0.095 l 0.007,0.009 c 0.021,-0.016 0.048,-0.03 0.081,-0.039 0.032,-0.009 0.056,-0.018 0.072,-0.025 l 0.023,-0.011 h 0.017 l 0.007,-0.009 0.061,-0.005 0.023,0.007 c 0.002,0.016 -0.001,0.034 -0.013,0.054 0.005,-0.002 0.007,-0.002 0.009,0.002 0.004,0.003 0.006,0.006 0.008,0.006 h -0.013 c -0.012,0.057 -0.024,0.115 -0.037,0.174 -0.021,0.096 -0.036,0.149 -0.046,0.163 0.003,0.003 0.007,0.003 0.012,0.005 0.004,0.002 0.004,0.007 0,0.013 l -0.026,0.046 0.014,0.034 c -0.003,0.013 -0.008,0.034 -0.011,0.061 -0.005,0.027 -0.009,0.053 -0.013,0.074 l -0.02,0.025 v 0.067 h -0.011 l 0.009,0.03 c -0.006,0.011 -0.009,0.027 -0.013,0.047 -0.002,0.019 -0.004,0.032 -0.005,0.039 l 0.007,0.04 -0.018,0.023 c 0.002,0.009 0.004,0.018 0.006,0.026 0.003,0.013 0.005,0.019 0.005,0.021 0,0.011 -0.004,0.015 -0.011,0.018 v -0.009 l -0.005,0.004 c 0,0.017 0.007,0.021 0.019,0.019 0,0.009 -0.005,0.041 -0.01,0.095 -0.007,0.055 -0.009,0.084 -0.009,0.086 0,0.012 0,0.021 0.002,0.025 l -0.031,0.02 -0.002,0.03 0.022,-0.005 c 0.012,0.003 0.017,0.012 0.011,0.022 -0.004,0.011 -0.009,0.021 -0.012,0.023 l 0.022,0.021 c 0.004,0.007 0,0.013 -0.009,0.015 -0.009,0.002 -0.013,0.005 -0.013,0.009 v 0.009 c 0.01,0.007 0.015,0.014 0.015,0.016 0,0.005 -0.005,0.008 -0.015,0.005 l 0.001,0.024 c 0.002,0.017 0.003,0.034 0.007,0.05 -0.012,0.015 -0.016,0.023 -0.016,0.032 0,0.006 0.004,0.011 0.013,0.013 0.01,0 0.016,0.008 0.016,0.017 h -0.009 c 0.006,0.022 0.005,0.048 -0.003,0.079 -0.008,0.031 -0.019,0.059 -0.03,0.084 l -0.035,-0.007 c -0.001,0 -0.004,0.007 -0.009,0.016 -0.005,0.009 -0.012,0.011 -0.021,0.007 l -0.013,0.032 c -0.051,0.029 -0.103,0.054 -0.154,0.083 -0.032,-0.011 -0.055,-0.036 -0.069,-0.079 -0.016,-0.041 -0.023,-0.086 -0.023,-0.133 0,-0.023 0.003,-0.045 0.006,-0.07 0.004,-0.024 0.006,-0.044 0.008,-0.053 0.001,-0.006 0.005,-0.019 0.009,-0.031 0.004,-0.014 10e-4,-0.021 -0.004,-0.025 v -0.038 l 0.015,-0.01 c -0.007,-0.009 -0.011,-0.013 -0.015,-0.011 v -0.111 l -0.038,-0.004 -0.029,0.01 c -0.006,-0.006 -0.01,-0.008 -0.013,-0.008 -0.004,0 -0.007,0.004 -0.011,0.014 h -0.026 c -0.003,-0.004 -0.007,-0.006 -0.01,-0.012 -0.007,0.012 -0.017,0.019 -0.031,0.021 -0.014,0.005 -0.025,0.007 -0.034,0.009 0.002,-0.009 0.004,-0.015 0.004,-0.018 0,-0.002 0,-0.004 0.002,-0.01 h -0.012 c -0.005,0 -0.01,0.006 -0.02,0.013 -0.026,0.018 -0.054,0.026 -0.085,0.026 -0.005,0 -0.016,0.01 -0.036,0.021 -0.005,0.005 -0.014,0.011 -0.029,0.022 l -0.045,-0.026 c -0.009,0.015 -0.015,0.026 -0.017,0.036 l -0.038,0.009 h -0.019 l -0.041,0.02 -0.014,0.03 -0.019,-0.005 -0.02,0.009 -0.007,0.039 c -0.008,0.011 -0.019,0.025 -0.031,0.036 -0.014,0.011 -0.026,0.02 -0.038,0.025 l -0.005,0.02 h 0.019 c -0.003,0.009 -0.007,0.016 -0.01,0.021 -0.005,0.004 -0.008,0.002 -0.011,-0.004 -0.025,0.021 -0.036,0.049 -0.036,0.075 -0.019,0.005 -0.04,0.017 -0.064,0.032 -0.025,0.018 -0.039,0.034 -0.042,0.049 l -0.044,0.039 c -0.005,0.002 -0.007,0 -0.01,-0.007 -0.004,-0.004 -0.005,-0.007 -0.004,-0.009 l -0.121,0.063 -0.054,0.031 -0.019,-0.002 -0.021,-0.034 c 0.01,-0.045 0.033,-0.097 0.072,-0.154 0.019,-0.028 0.04,-0.061 0.061,-0.091 l 0.007,-0.002 z m 0.959,-0.591 0.012,-0.004 c 0.016,-0.098 0.033,-0.195 0.05,-0.292 l 0.023,-0.099 c -0.01,0.015 -0.023,0.021 -0.039,0.025 -0.007,0.014 -0.023,0.034 -0.046,0.064 -0.024,0.028 -0.039,0.054 -0.043,0.071 -0.018,0.01 -0.032,0.023 -0.044,0.036 -0.036,0.048 -0.057,0.075 -0.062,0.077 -0.018,0.039 -0.043,0.075 -0.075,0.104 -0.009,0.021 -0.016,0.041 -0.024,0.059 0.03,0 0.059,-0.002 0.091,-0.009 0.099,-0.02 0.152,-0.032 0.157,-0.032"
   id="path160"
   inkscape:connector-curvature="0"
   style="fill:#e60012" />
	</g></g>
</svg>